<?xml version="1.0" encoding="UTF-8"?>
<svg width="16px" height="16px" viewBox="0 0 16 16" version="1.1" xmlns="http://www.w3.org/2000/svg" xmlns:xlink="http://www.w3.org/1999/xlink">
    <title>提醒</title>
    <g id="V2.0.6" stroke="none" stroke-width="1" fill="none" fill-rule="evenodd">
        <g id="2.7待办详情" transform="translate(-955.000000, -412.000000)" fill-rule="nonzero">
            <g id="编组-15" transform="translate(680.000000, 180.000000)">
                <g id="编组-2备份-5" transform="translate(20.000000, 76.000000)">
                    <g id="编组-10备份-2" transform="translate(243.000000, 150.000000)">
                        <g id="编组-8" transform="translate(12.000000, 4.000000)">
                            <g id="提醒" transform="translate(0.000000, 2.000000)">
                                <rect id="矩形" fill="#000000" opacity="0" x="0" y="0" width="16" height="16"></rect>
                                <path d="M7.99128102,2.51796502 C10.8772636,2.51796502 13.2313883,4.9217806 13.2313883,7.86868045 C13.2313883,10.8155803 10.8772636,13.2193959 7.99128102,13.2193959 C5.10529846,13.2193959 2.75117371,10.8155803 2.75117371,7.86868045 C2.75117371,4.9217806 5.10529846,2.51796502 7.99128102,2.51796502 M7.99128102,1.50302067 C4.5472837,1.50302067 1.75720993,4.35198728 1.75720993,7.86868045 C1.75720993,11.3853736 4.5472837,14.2343402 7.99128102,14.2343402 C11.4352783,14.2343402 14.2253724,11.3853736 14.2253724,7.86868045 C14.2340711,4.35198728 11.4352783,1.50302067 7.99128102,1.50302067 L7.99128102,1.50302067 Z M7.89537223,9.00826709 C7.75586854,9.00826709 7.62508384,8.95484897 7.52045607,8.8391097 L5.30583501,6.31955485 C5.12273642,6.10588235 5.14017438,5.78537361 5.34071093,5.59841017 C5.54996647,5.41144674 5.86384977,5.42925278 6.04694836,5.63402226 L8.2702884,8.15357711 C8.45338699,8.3672496 8.43594903,8.68775835 8.23541247,8.87472178 C8.13078471,8.96375199 8.01743796,9.00826709 7.89537223,9.00826709 Z M7.99128102,9.26645469 C7.71227364,9.26645469 7.49429913,9.03497615 7.49429913,8.75898251 L7.49429913,4.21844197 C7.49429913,3.93354531 7.72099262,3.71096979 7.99128102,3.71096979 C8.26156942,3.71096979 8.48826291,3.94244833 8.48826291,4.21844197 L8.48826291,8.75898251 C8.49698189,9.04387917 8.2702884,9.26645469 7.99128102,9.26645469 Z M1.9926224,4.15612083 C1.86183769,4.15612083 1.73977197,4.1027027 1.64386318,4.00476948 C1.45204561,3.80890302 1.45204561,3.47949126 1.64386318,3.2836248 L3.73641851,1.14689984 C3.92823608,0.951033386 4.25083836,0.951033386 4.44265594,1.14689984 C4.63447351,1.3427663 4.63447351,1.67217806 4.44265594,1.86804452 L2.3501006,4.00476948 C2.24547284,4.11160572 2.11468813,4.15612083 1.9926224,4.15612083 Z M13.9986586,4.15612083 C13.8678739,4.15612083 13.7458082,4.1027027 13.6498994,4.00476948 L11.5573441,1.86804452 C11.3655265,1.67217806 11.3655265,1.3427663 11.5573441,1.14689984 C11.7491616,0.951033386 12.0717639,0.951033386 12.2635815,1.14689984 L14.3561368,3.2836248 C14.5479544,3.47949126 14.5479544,3.80890302 14.3561368,4.00476948 C14.2515091,4.11160572 14.1294433,4.15612083 13.9986586,4.15612083 Z M3.04761905,15 C2.95171026,15 2.84708249,14.9732909 2.75989269,14.9020668 C2.5331992,14.7418124 2.48088531,14.4213037 2.64654594,14.1898251 L3.26559356,13.2995231 C3.42253521,13.0680445 3.73641851,13.0146264 3.96311201,13.1837838 C4.1898055,13.3440382 4.24211938,13.6645469 4.07645875,13.8960254 L3.45741113,14.7863275 C3.35278337,14.9198728 3.2045607,15 3.04761905,15 Z M12.943662,15 C12.7867203,15 12.6384977,14.9287758 12.5338699,14.7863275 L11.9148223,13.8960254 C11.7578806,13.6645469 11.8101945,13.3529412 12.028169,13.1837838 C12.2548625,13.0235294 12.5600268,13.0769475 12.7256875,13.2995231 L13.3447351,14.1898251 C13.5016767,14.4213037 13.4493628,14.7329094 13.2313883,14.9020668 C13.1441985,14.9643879 13.0482897,15 12.943662,15 Z" id="形状" fill="#808695"></path>
                            </g>
                        </g>
                    </g>
                </g>
            </g>
        </g>
    </g>
</svg>