<?xml version="1.0" encoding="UTF-8"?>
<svg width="20px" height="20px" viewBox="0 0 20 20" version="1.1" xmlns="http://www.w3.org/2000/svg" xmlns:xlink="http://www.w3.org/1999/xlink">
    <title>全屏</title>
    <g id="页面-1" stroke="none" stroke-width="1" fill="none" fill-rule="evenodd">
        <g id="YZ_homepage_edit5" transform="translate(-1692.000000, -30.000000)" fill-rule="nonzero">
            <g id="全屏" transform="translate(1692.000000, 30.000000)">
                <rect id="矩形" fill-opacity="0.01" fill="#000000" x="0" y="0" width="20" height="20"></rect>
                <path d="M16.5264199,1.27067969 L3.44732,1.27067969 C2.2450993,1.27067969 1.26746063,2.24832031 1.26746063,3.45053906 L1.26746063,16.5296391 C1.26746063,17.7318598 2.24510125,18.7094984 3.44732,18.7094984 L16.52642,18.7094984 C17.7281407,18.7094984 18.7062794,17.7318578 18.7062794,16.5296391 L18.7062794,3.45054 C18.7062794,2.24832031 17.7281406,1.27067969 16.5264199,1.27067969 Z M17.6163595,16.5296406 C17.6163595,17.1304805 17.1272793,17.6195801 16.5264199,17.6195801 L3.44732,17.6195801 C2.84593914,17.6195801 2.35738055,17.1304805 2.35738055,16.5296406 L2.35738055,3.45054 C2.35738055,2.84970016 2.84594109,2.36060055 3.44732,2.36060055 L16.52642,2.36060055 C17.1272794,2.36060055 17.6163595,2.84970016 17.6163595,3.45054 L17.6163595,16.52964 L17.6163595,16.5296406 Z M14.8915605,4.54048047 L12.1667,4.54048047 C11.8655008,4.54048047 11.6217605,4.7842207 11.6217605,5.08544141 C11.6217605,5.38666211 11.8655203,5.63042187 12.1667,5.63042187 L13.57596,5.63042187 L11.2364805,7.96990039 C11.0235801,8.18278125 11.0235801,8.52764063 11.2364805,8.74051953 C11.3429004,8.84693945 11.4823398,8.90016016 11.6217813,8.90016016 C11.7612227,8.90016016 11.9006211,8.84693945 12.0071016,8.74051953 L14.3466016,6.401 L14.3466016,7.81024 C14.3466016,8.1114607 14.5903613,8.35520094 14.891582,8.35520094 C15.1922617,8.35520094 15.436543,8.1114607 15.436543,7.81024 L15.436543,5.08542 C15.436543,4.78419922 15.1922402,4.54048047 14.8915605,4.54048047 Z M6.3977793,5.63040039 L7.8070193,5.63040039 C8.10769898,5.63040039 8.35198023,5.38664063 8.35198023,5.08541992 C8.35198023,4.78419922 8.10770094,4.54045898 7.8070193,4.54045898 L5.0822,4.54045898 C4.7809793,4.54045898 4.53723906,4.78419922 4.53723906,5.08541992 L4.53723906,7.81023992 C4.53723906,8.11146062 4.7809793,8.35520086 5.0822,8.35520086 C5.38289922,8.35520086 5.62718047,8.11146062 5.62718047,7.81023992 L5.62718047,6.40099992 L7.96668047,8.74051945 C8.07311992,8.84693937 8.21253984,8.90016008 8.35200078,8.90016008 C8.49146172,8.90016008 8.63086016,8.84693938 8.73732109,8.74051945 C8.95018047,8.52763859 8.95018047,8.18277922 8.73732109,7.96990031 L6.3977793,5.63040039 Z M7.96667969,11.2396992 L5.62717969,13.5791797 L5.62717969,12.1699597 C5.62717969,11.8687195 5.38290039,11.6249792 5.08219922,11.6249792 C4.78097852,11.6249792 4.53723828,11.868739 4.53723828,12.1699597 L4.53723828,14.8947597 C4.53723828,15.1959804 4.78097852,15.4397206 5.08219922,15.4397206 L7.80701922,15.4397206 C8.10769891,15.4397206 8.35198016,15.1959609 8.35198016,14.8947597 C8.35198016,14.5935195 8.10770086,14.3497792 7.80701922,14.3497792 L6.39777922,14.3497792 L8.73729875,12.0102792 C8.95015813,11.7973788 8.95015813,11.452539 8.73729875,11.2396796 C8.52441992,11.0268008 8.17956055,11.0268008 7.96667969,11.2396992 Z M14.8915605,11.6249805 C14.5903203,11.6249805 14.3465801,11.8687402 14.3465801,12.1699609 L14.3465801,13.5791809 L12.0070801,11.2396992 C11.7941797,11.0267988 11.4493203,11.0267988 11.2364805,11.2396992 C11.0235801,11.4525801 11.0235801,11.7974199 11.2364805,12.0102988 L13.5759805,14.3497988 L12.1667205,14.3497988 C11.8655213,14.3497988 11.621781,14.5935586 11.621781,14.8947793 C11.621781,15.196 11.8655408,15.4397402 12.1667205,15.4397402 L14.8915605,15.4397402 C15.1922402,15.4397402 15.4365214,15.1959805 15.4365214,14.8947793 L15.4365214,12.1699793 C15.4365214,11.8687402 15.1922402,11.6249805 14.8915605,11.6249805 Z" id="形状" fill="#5CC1FF"></path>
            </g>
        </g>
    </g>
</svg>