<?xml version="1.0" encoding="UTF-8"?>
<svg width="16px" height="16px" viewBox="0 0 16 16" version="1.1" xmlns="http://www.w3.org/2000/svg" xmlns:xlink="http://www.w3.org/1999/xlink">
    <title>权限管理-搜索</title>
    <g id="V2.0.7" stroke="none" stroke-width="1" fill="none" fill-rule="evenodd">
        <g id="2.1权限管理" transform="translate(-1072.000000, -274.000000)">
            <g id="编组-15" transform="translate(680.000000, 200.000000)">
                <g id="关闭" transform="translate(392.000000, 74.000000)">
                    <rect id="矩形" fill-opacity="0" fill="#FFFFFF" x="0" y="0" width="16" height="16"></rect>
                    <g id="搜索_search" transform="translate(1.000000, 1.000000)" fill="#808695" fill-rule="nonzero">
                        <path d="M6.36099626,0 C9.87406345,0 12.7219925,2.84792908 12.7219925,6.36099626 C12.7219925,7.93791652 12.1481725,9.38082024 11.1979482,10.4922916 L13.8535534,13.1464811 C14.0488155,13.3417432 14.0488155,13.6583257 13.8535534,13.8535879 C13.679987,14.0271542 13.4105626,14.0464394 13.2156945,13.9114433 L13.1464466,13.8535879 L10.4922916,11.1979482 C9.38082024,12.1481725 7.93791652,12.7219925 6.36099626,12.7219925 C2.84792908,12.7219925 0,9.87406345 0,6.36099626 C0,2.84792908 2.84792908,0 6.36099626,0 Z M6.36099626,1 C3.40021383,1 1,3.40021383 1,6.36099626 C1,9.3217787 3.40021383,11.7219925 6.36099626,11.7219925 C9.3217787,11.7219925 11.7219925,9.3217787 11.7219925,6.36099626 C11.7219925,3.40021383 9.3217787,1 6.36099626,1 Z M6.36103074,2.75811589 C7.23648057,2.75811589 8.05814078,3.10563859 8.66488235,3.71238017 C8.8601445,3.90764231 8.8601445,4.2242248 8.66488235,4.41948695 C8.46962021,4.61474909 8.15303772,4.61474909 7.95777557,4.41948695 C7.53671388,3.99842525 6.96854195,3.75811589 6.36103074,3.75811589 C5.75355011,3.75811589 5.18537949,3.99842784 4.76432039,4.41948695 C4.56905824,4.61474909 4.25247575,4.61474909 4.0572136,4.41948695 C3.86195146,4.2242248 3.86195146,3.90764231 4.0572136,3.71238017 C4.66395144,3.10564233 5.48560975,2.75811589 6.36103074,2.75811589 Z" id="形状结合"></path>
                    </g>
                </g>
            </g>
        </g>
    </g>
</svg>